<svg id="visual" viewBox="0 0 1920 1020" width="1920" height="1020" xmlns="http://www.w3.org/2000/svg" xmlns:xlink="http://www.w3.org/1999/xlink" version="1.1"><path d="M0 103L40 103C80 103 160 103 240 94.5C320 86 400 69 480 67.3C560 65.7 640 79.3 720 84.5C800 89.7 880 86.3 960 91.3C1040 96.3 1120 109.7 1200 121.5C1280 133.3 1360 143.7 1440 148.8C1520 154 1600 154 1680 152.3C1760 150.7 1840 147.3 1880 145.7L1920 144L1920 0L1880 0C1840 0 1760 0 1680 0C1600 0 1520 0 1440 0C1360 0 1280 0 1200 0C1120 0 1040 0 960 0C880 0 800 0 720 0C640 0 560 0 480 0C400 0 320 0 240 0C160 0 80 0 40 0L0 0Z" fill="#ecf4ff"></path><path d="M0 358L40 337.7C80 317.3 160 276.7 240 249.5C320 222.3 400 208.7 480 232.3C560 256 640 317 720 315.3C800 313.7 880 249.3 960 256.2C1040 263 1120 341 1200 381.7C1280 422.3 1360 425.7 1440 425.7C1520 425.7 1600 422.3 1680 393.5C1760 364.7 1840 310.3 1880 283.2L1920 256L1920 142L1880 143.7C1840 145.3 1760 148.7 1680 150.3C1600 152 1520 152 1440 146.8C1360 141.7 1280 131.3 1200 119.5C1120 107.7 1040 94.3 960 89.3C880 84.3 800 87.7 720 82.5C640 77.3 560 63.7 480 65.3C400 67 320 84 240 92.5C160 101 80 101 40 101L0 101Z" fill="#b3d0ff"></path><path d="M0 552L40 548.5C80 545 160 538 240 532.8C320 527.7 400 524.3 480 560.2C560 596 640 671 720 696.5C800 722 880 698 960 675.8C1040 653.7 1120 633.3 1200 635C1280 636.7 1360 660.3 1440 643.3C1520 626.3 1600 568.7 1680 580.7C1760 592.7 1840 674.3 1880 715.2L1920 756L1920 254L1880 281.2C1840 308.3 1760 362.7 1680 391.5C1600 420.3 1520 423.7 1440 423.7C1360 423.7 1280 420.3 1200 379.7C1120 339 1040 261 960 254.2C880 247.3 800 311.7 720 313.3C640 315 560 254 480 230.3C400 206.7 320 220.3 240 247.5C160 274.7 80 315.3 40 335.7L0 356Z" fill="#7eabff"></path><path d="M0 858L40 864.8C80 871.7 160 885.3 240 883.7C320 882 400 865 480 859.8C560 854.7 640 861.3 720 871.5C800 881.7 880 895.3 960 905.5C1040 915.7 1120 922.3 1200 924C1280 925.7 1360 922.3 1440 917.3C1520 912.3 1600 905.7 1680 902.3C1760 899 1840 899 1880 899L1920 899L1920 754L1880 713.2C1840 672.3 1760 590.7 1680 578.7C1600 566.7 1520 624.3 1440 641.3C1360 658.3 1280 634.7 1200 633C1120 631.3 1040 651.7 960 673.8C880 696 800 720 720 694.5C640 669 560 594 480 558.2C400 522.3 320 525.7 240 530.8C160 536 80 543 40 546.5L0 550Z" fill="#4e83ff"></path><path d="M0 1021L40 1021C80 1021 160 1021 240 1021C320 1021 400 1021 480 1021C560 1021 640 1021 720 1021C800 1021 880 1021 960 1021C1040 1021 1120 1021 1200 1021C1280 1021 1360 1021 1440 1021C1520 1021 1600 1021 1680 1021C1760 1021 1840 1021 1880 1021L1920 1021L1920 897L1880 897C1840 897 1760 897 1680 900.3C1600 903.7 1520 910.3 1440 915.3C1360 920.3 1280 923.7 1200 922C1120 920.3 1040 913.7 960 903.5C880 893.3 800 879.7 720 869.5C640 859.3 560 852.7 480 857.8C400 863 320 880 240 881.7C160 883.3 80 869.7 40 862.8L0 856Z" fill="#2f57f7"></path></svg>