<svg id="visual" viewBox="0 0 900 600" width="900" height="600" xmlns="http://www.w3.org/2000/svg" xmlns:xlink="http://www.w3.org/1999/xlink" version="1.1"><rect x="0" y="0" width="900" height="600" fill="#C4DAFB"></rect><path d="M0 431L18.8 422.5C37.7 414 75.3 397 112.8 397.3C150.3 397.7 187.7 415.3 225.2 440C262.7 464.7 300.3 496.3 337.8 474C375.3 451.7 412.7 375.3 450.2 356C487.7 336.7 525.3 374.3 562.8 386.7C600.3 399 637.7 386 675.2 383.8C712.7 381.7 750.3 390.3 787.8 383.5C825.3 376.7 862.7 354.3 881.3 343.2L900 332L900 601L881.3 601C862.7 601 825.3 601 787.8 601C750.3 601 712.7 601 675.2 601C637.7 601 600.3 601 562.8 601C525.3 601 487.7 601 450.2 601C412.7 601 375.3 601 337.8 601C300.3 601 262.7 601 225.2 601C187.7 601 150.3 601 112.8 601C75.3 601 37.7 601 18.8 601L0 601Z" fill="#D5EAFF" stroke-linecap="round" stroke-linejoin="miter"></path></svg>