<svg id="visual" viewBox="0 0 900 600" width="900" height="600" xmlns="http://www.w3.org/2000/svg" xmlns:xlink="http://www.w3.org/1999/xlink" version="1.1"><rect x="0" y="0" width="900" height="600" fill="#D5EAFF"></rect><path d="M0 488L30 455.2C60 422.3 120 356.7 180 363.8C240 371 300 451 360 451.7C420 452.3 480 373.7 540 360.3C600 347 660 399 720 436.2C780 473.3 840 495.7 870 506.8L900 518L900 601L870 601C840 601 780 601 720 601C660 601 600 601 540 601C480 601 420 601 360 601C300 601 240 601 180 601C120 601 60 601 30 601L0 601Z" fill="#4285BD" stroke-linecap="round" stroke-linejoin="miter"></path></svg>