<svg id="visual" viewBox="0 0 900 600" width="900" height="600" xmlns="http://www.w3.org/2000/svg" xmlns:xlink="http://www.w3.org/1999/xlink" version="1.1"><rect x="0" y="0" width="900" height="600" fill="#D5EAFF"></rect><path d="M0 487L21.5 485.7C43 484.3 86 481.7 128.8 470.2C171.7 458.7 214.3 438.3 257.2 427.5C300 416.7 343 415.3 385.8 420.5C428.7 425.7 471.3 437.3 514.2 440.2C557 443 600 437 642.8 444.8C685.7 452.7 728.3 474.3 771.2 486C814 497.7 857 499.3 878.5 500.2L900 501L900 601L878.5 601C857 601 814 601 771.2 601C728.3 601 685.7 601 642.8 601C600 601 557 601 514.2 601C471.3 601 428.7 601 385.8 601C343 601 300 601 257.2 601C214.3 601 171.7 601 128.8 601C86 601 43 601 21.5 601L0 601Z" fill="#4285BD" stroke-linecap="round" stroke-linejoin="miter"></path></svg>